<?xml version="1.0" standalone="no"?>
<!DOCTYPE svg PUBLIC "-//W3C//DTD SVG 20010904//EN"
  "http://www.w3.org/TR/2001/REC-SVG-20010904/DTD/svg10.dtd">
<svg version="1.0" xmlns="http://www.w3.org/2000/svg" width="512.000000pt" height="512.000000pt"
     viewBox="0 0 512.000000 512.000000" preserveAspectRatio="xMidYMid meet" fill="#FFFFFF">
  <g transform="translate(0.000000,512.000000) scale(0.100000,-0.100000)" stroke="none">
    <path d="M720 4496 c36 -34 1831 -1366 1841 -1366 10 0 1849 1368 1849 1376 0
2 -833 4 -1852 4 -1576 0 -1850 -2 -1838 -14z"/>
    <path d="M189 4426 c-134 -99 -189 -222 -189 -421 l0 -110 44 -25 c25 -14 598
-439 1275 -945 678 -506 1235 -921 1239 -922 4 -2 567 416 1252 928 685 512
1260 938 1278 947 l32 16 0 110 c0 162 -31 259 -112 350 -50 57 -124 109 -146
103 -9 -2 -507 -369 -1105 -816 -598 -447 -1102 -821 -1120 -831 -41 -25 -112
-26 -152 -2 -16 10 -520 385 -1120 832 -600 447 -1099 815 -1110 817 -11 2
-40 -11 -66 -31z"/>
    <path d="M0 2276 c0 -898 3 -1270 11 -1308 19 -86 59 -158 124 -223 98 -98
198 -135 370 -135 l95 0 0 1239 0 1239 -288 214 c-158 118 -293 218 -299 222
-10 6 -13 -247 -13 -1248z"/>
    <path d="M4818 3309 l-298 -221 0 -1239 0 -1239 95 0 c112 0 181 13 254 49
119 57 216 184 241 316 8 43 10 410 8 1308 l-3 1248 -297 -222z"/>
    <path d="M900 1736 l0 -1126 1660 0 1660 0 0 1126 c0 900 -3 1125 -12 1117 -7
-6 -362 -270 -788 -588 -454 -339 -793 -585 -817 -594 -39 -14 -47 -14 -85 0
-25 9 -363 254 -818 595 -426 319 -781 583 -787 587 -10 7 -13 -219 -13 -1117z"/>
  </g>
</svg>
